<?xml version="1.0" encoding="utf-8"?>
<svg xmlns="http://www.w3.org/2000/svg" viewBox="0 0 1920 874" width="1920" height="874">
  <defs>
    <clipPath id="a">
      <path transform="translate(0 60)" fill="#f8e1e1" d="M0 0h1920v874H0z" />
    </clipPath>
    <clipPath id="b">
      <path class="b" d="M0 0h261v125.001H0z" />
    </clipPath>
    <clipPath id="d">
      <path d="M-68.313-619.573c20.535-19.324 53.559-6.73 53.559-6.73l800.507 436.859a108.105 108.105 0 0 0 92.657 3.228s696.859-413.566 745.066-428.347 72.65-1.672 98.449 7.637c257.314 104.867 405.4 160.668 405.4 160.668l-104.856 237.3-316.063-192.732c-16.819-4.952-51.961-2.273-51.961-2.273L868.166-54.381s-78.157 7.042-92.657 0L-44.416-443.049s-44.433-157.2-23.897-176.524Z" transform="translate(8298 748.161)" fill="#fff" clip-rule="evenodd" />
    </clipPath>
    <clipPath id="e">
      <path class="b" d="M0 0h1922v748.001H0z" />
    </clipPath>
    <style>.b{fill:none}.g{opacity:.668;clip-path:url(#b)}.h{fill:#2b2bb2}</style>
  </defs>
  <g transform="translate(0 -60)" clip-path="url(#a)">
    <path fill="#151950" d="M-.125 0h1920v934h-1920z" />
    <path d="m-647.125 25.405 35.593 20.556 395.214 228.178 435.357 251.36 18.949 10.94 541.727 312.773a117.327 117.327 0 0 0 81.361 13.5l749.222-431.35a114.24 114.24 0 0 1 114.089.081l146.927 84.832a114.2 114.2 0 0 0 114.137.035l363.819-209.73 366.4 212.4v570.366H467.421l190.278-109.549-38.8-22.4a117.337 117.337 0 0 0-117.315 0l-1148.709 663.198Z" fill="#272f88" stroke="transparent" stroke-miterlimit="10" />
    <g class="g">
      <path class="h" d="M1634.499 92v-3h-3v-2h3v-3h2v3h3v2h-3v3ZM1684.499 92v-3h-3v-2h3v-3h2v3h3v2h-3v3ZM1734.499 92v-3h-3v-2h3v-3h2v3h3v2h-3v3ZM1784.499 92v-3h-3v-2h3v-3h2v3h3v2h-3v3ZM1834.499 92v-3h-3v-2h3v-3h2v3h3v2h-3v3ZM1884.499 92v-3h-3v-2h3v-3h2v3h3v2h-3v3ZM1634.499 144v-3h-3v-2h3v-3h2v3h3v2h-3v3ZM1684.499 144v-3h-3v-2h3v-3h2v3h3v2h-3v3ZM1734.499 144v-3h-3v-2h3v-3h2v3h3v2h-3v3ZM1784.499 144v-3h-3v-2h3v-3h2v3h3v2h-3v3ZM1834.499 144v-3h-3v-2h3v-3h2v3h3v2h-3v3ZM1884.499 144v-3h-3v-2h3v-3h2v3h3v2h-3v3ZM1634.499 196v-3h-3v-2h3v-3h2v3h3v2h-3v3ZM1684.499 196v-3h-3v-2h3v-3h2v3h3v2h-3v3ZM1734.499 196v-3h-3v-2h3v-3h2v3h3v2h-3v3ZM1784.499 196v-3h-3v-2h3v-3h2v3h3v2h-3v3ZM1834.499 196v-3h-3v-2h3v-3h2v3h3v2h-3v3ZM1884.499 196v-3h-3v-2h3v-3h2v3h3v2h-3v3Z" />
    </g>
    <g class="g">
      <path class="h" d="M47.499 100v-3h-3v-2h3v-3h2v3h3v2h-3v3ZM97.499 100v-3h-3v-2h3v-3h2v3h3v2h-3v3ZM147.499 100v-3h-3v-2h3v-3h2v3h3v2h-3v3ZM197.499 100v-3h-3v-2h3v-3h2v3h3v2h-3v3ZM247.499 100v-3h-3v-2h3v-3h2v3h3v2h-3v3ZM297.499 100v-3h-3v-2h3v-3h2v3h3v2h-3v3ZM47.499 152v-3h-3v-2h3v-3h2v3h3v2h-3v3ZM97.499 152v-3h-3v-2h3v-3h2v3h3v2h-3v3ZM147.499 152v-3h-3v-2h3v-3h2v3h3v2h-3v3ZM197.499 152v-3h-3v-2h3v-3h2v3h3v2h-3v3ZM247.499 152v-3h-3v-2h3v-3h2v3h3v2h-3v3ZM297.499 152v-3h-3v-2h3v-3h2v3h3v2h-3v3ZM47.499 204v-3h-3v-2h3v-3h2v3h3v2h-3v3ZM97.499 204v-3h-3v-2h3v-3h2v3h3v2h-3v3ZM147.499 204v-3h-3v-2h3v-3h2v3h3v2h-3v3ZM197.499 204v-3h-3v-2h3v-3h2v3h3v2h-3v3ZM247.499 204v-3h-3v-2h3v-3h2v3h3v2h-3v3ZM297.499 204v-3h-3v-2h3v-3h2v3h3v2h-3v3Z" />
    </g>
    <g transform="translate(-8297 186)" clip-path="url(#d)">
      <g transform="translate(8315.499 136)" clip-path="url(#e)" opacity=".668">
        <path class="h" d="M3 8V5H0V3h3V0h2v3h3v2H5v3ZM53 8V5h-3V3h3V0h2v3h3v2h-3v3ZM103 8V5h-3V3h3V0h2v3h3v2h-3v3ZM153 8V5h-3V3h3V0h2v3h3v2h-3v3ZM203 8V5h-3V3h3V0h2v3h3v2h-3v3ZM253 8V5h-3V3h3V0h2v3h3v2h-3v3ZM303 8V5h-3V3h3V0h2v3h3v2h-3v3ZM353 8V5h-3V3h3V0h2v3h3v2h-3v3ZM403 8V5h-3V3h3V0h2v3h3v2h-3v3ZM453 8V5h-3V3h3V0h2v3h3v2h-3v3ZM503 8V5h-3V3h3V0h2v3h3v2h-3v3ZM553 8V5h-3V3h3V0h2v3h3v2h-3v3ZM603 8V5h-3V3h3V0h2v3h3v2h-3v3ZM653 8V5h-3V3h3V0h2v3h3v2h-3v3ZM703 8V5h-3V3h3V0h2v3h3v2h-3v3ZM753 8V5h-3V3h3V0h2v3h3v2h-3v3ZM803 8V5h-3V3h3V0h2v3h3v2h-3v3ZM853 8V5h-3V3h3V0h2v3h3v2h-3v3ZM903 8V5h-3V3h3V0h2v3h3v2h-3v3ZM953 8V5h-3V3h3V0h2v3h3v2h-3v3ZM1003 8V5h-3V3h3V0h2v3h3v2h-3v3ZM1053 8V5h-3V3h3V0h2v3h3v2h-3v3ZM1103 8V5h-3V3h3V0h2v3h3v2h-3v3ZM1153 8V5h-3V3h3V0h2v3h3v2h-3v3ZM1203 8V5h-3V3h3V0h2v3h3v2h-3v3ZM1253 8V5h-3V3h3V0h2v3h3v2h-3v3ZM1303 8V5h-3V3h3V0h2v3h3v2h-3v3ZM1353 8V5h-3V3h3V0h2v3h3v2h-3v3ZM1403 8V5h-3V3h3V0h2v3h3v2h-3v3ZM1453 8V5h-3V3h3V0h2v3h3v2h-3v3ZM1503 8V5h-3V3h3V0h2v3h3v2h-3v3ZM1553 8V5h-3V3h3V0h2v3h3v2h-3v3ZM1603 8V5h-3V3h3V0h2v3h3v2h-3v3ZM1653 8V5h-3V3h3V0h2v3h3v2h-3v3ZM1703 8V5h-3V3h3V0h2v3h3v2h-3v3ZM1753 8V5h-3V3h3V0h2v3h3v2h-3v3ZM1803 8V5h-3V3h3V0h2v3h3v2h-3v3ZM1853 8V5h-3V3h3V0h2v3h3v2h-3v3ZM1903 8V5h-3V3h3V0h2v3h3v2h-3v3ZM3 60v-3H0v-2h3v-3h2v3h3v2H5v3ZM53 60v-3h-3v-2h3v-3h2v3h3v2h-3v3ZM103 60v-3h-3v-2h3v-3h2v3h3v2h-3v3ZM153 60v-3h-3v-2h3v-3h2v3h3v2h-3v3ZM203 60v-3h-3v-2h3v-3h2v3h3v2h-3v3ZM253 60v-3h-3v-2h3v-3h2v3h3v2h-3v3ZM303 60v-3h-3v-2h3v-3h2v3h3v2h-3v3ZM353 60v-3h-3v-2h3v-3h2v3h3v2h-3v3ZM403 60v-3h-3v-2h3v-3h2v3h3v2h-3v3ZM453 60v-3h-3v-2h3v-3h2v3h3v2h-3v3ZM503 60v-3h-3v-2h3v-3h2v3h3v2h-3v3ZM553 60v-3h-3v-2h3v-3h2v3h3v2h-3v3ZM603 60v-3h-3v-2h3v-3h2v3h3v2h-3v3ZM653 60v-3h-3v-2h3v-3h2v3h3v2h-3v3ZM703 60v-3h-3v-2h3v-3h2v3h3v2h-3v3ZM753 60v-3h-3v-2h3v-3h2v3h3v2h-3v3ZM803 60v-3h-3v-2h3v-3h2v3h3v2h-3v3ZM853 60v-3h-3v-2h3v-3h2v3h3v2h-3v3ZM903 60v-3h-3v-2h3v-3h2v3h3v2h-3v3ZM953 60v-3h-3v-2h3v-3h2v3h3v2h-3v3ZM1003 60v-3h-3v-2h3v-3h2v3h3v2h-3v3ZM1053 60v-3h-3v-2h3v-3h2v3h3v2h-3v3ZM1103 60v-3h-3v-2h3v-3h2v3h3v2h-3v3ZM1153 60v-3h-3v-2h3v-3h2v3h3v2h-3v3ZM1203 60v-3h-3v-2h3v-3h2v3h3v2h-3v3ZM1253 60v-3h-3v-2h3v-3h2v3h3v2h-3v3ZM1303 60v-3h-3v-2h3v-3h2v3h3v2h-3v3ZM1353 60v-3h-3v-2h3v-3h2v3h3v2h-3v3ZM1403 60v-3h-3v-2h3v-3h2v3h3v2h-3v3ZM1453 60v-3h-3v-2h3v-3h2v3h3v2h-3v3ZM1503 60v-3h-3v-2h3v-3h2v3h3v2h-3v3ZM1553 60v-3h-3v-2h3v-3h2v3h3v2h-3v3ZM1603 60v-3h-3v-2h3v-3h2v3h3v2h-3v3ZM1653 60v-3h-3v-2h3v-3h2v3h3v2h-3v3ZM1703 60v-3h-3v-2h3v-3h2v3h3v2h-3v3ZM1753 60v-3h-3v-2h3v-3h2v3h3v2h-3v3ZM1803 60v-3h-3v-2h3v-3h2v3h3v2h-3v3ZM1853 60v-3h-3v-2h3v-3h2v3h3v2h-3v3ZM1903 60v-3h-3v-2h3v-3h2v3h3v2h-3v3ZM3 112v-3H0v-2h3v-3h2v3h3v2H5v3ZM53 112v-3h-3v-2h3v-3h2v3h3v2h-3v3ZM103 112v-3h-3v-2h3v-3h2v3h3v2h-3v3ZM153 112v-3h-3v-2h3v-3h2v3h3v2h-3v3ZM203 112v-3h-3v-2h3v-3h2v3h3v2h-3v3ZM253 112v-3h-3v-2h3v-3h2v3h3v2h-3v3ZM303 112v-3h-3v-2h3v-3h2v3h3v2h-3v3ZM353 112v-3h-3v-2h3v-3h2v3h3v2h-3v3ZM403 112v-3h-3v-2h3v-3h2v3h3v2h-3v3ZM453 112v-3h-3v-2h3v-3h2v3h3v2h-3v3ZM503 112v-3h-3v-2h3v-3h2v3h3v2h-3v3ZM553 112v-3h-3v-2h3v-3h2v3h3v2h-3v3ZM603 112v-3h-3v-2h3v-3h2v3h3v2h-3v3ZM653 112v-3h-3v-2h3v-3h2v3h3v2h-3v3ZM703 112v-3h-3v-2h3v-3h2v3h3v2h-3v3ZM753 112v-3h-3v-2h3v-3h2v3h3v2h-3v3ZM803 112v-3h-3v-2h3v-3h2v3h3v2h-3v3ZM853 112v-3h-3v-2h3v-3h2v3h3v2h-3v3ZM903 112v-3h-3v-2h3v-3h2v3h3v2h-3v3ZM953 112v-3h-3v-2h3v-3h2v3h3v2h-3v3ZM1003 112v-3h-3v-2h3v-3h2v3h3v2h-3v3ZM1053 112v-3h-3v-2h3v-3h2v3h3v2h-3v3ZM1103 112v-3h-3v-2h3v-3h2v3h3v2h-3v3ZM1153 112v-3h-3v-2h3v-3h2v3h3v2h-3v3ZM1203 112v-3h-3v-2h3v-3h2v3h3v2h-3v3ZM1253 112v-3h-3v-2h3v-3h2v3h3v2h-3v3ZM1303 112v-3h-3v-2h3v-3h2v3h3v2h-3v3ZM1353 112v-3h-3v-2h3v-3h2v3h3v2h-3v3ZM1403 112v-3h-3v-2h3v-3h2v3h3v2h-3v3ZM1453 112v-3h-3v-2h3v-3h2v3h3v2h-3v3ZM1503 112v-3h-3v-2h3v-3h2v3h3v2h-3v3ZM1553 112v-3h-3v-2h3v-3h2v3h3v2h-3v3ZM1603 112v-3h-3v-2h3v-3h2v3h3v2h-3v3ZM1653 112v-3h-3v-2h3v-3h2v3h3v2h-3v3ZM1703 112v-3h-3v-2h3v-3h2v3h3v2h-3v3ZM1753 112v-3h-3v-2h3v-3h2v3h3v2h-3v3ZM1803 112v-3h-3v-2h3v-3h2v3h3v2h-3v3ZM1853 112v-3h-3v-2h3v-3h2v3h3v2h-3v3ZM1903 112v-3h-3v-2h3v-3h2v3h3v2h-3v3ZM3 164v-3H0v-2h3v-3h2v3h3v2H5v3ZM53 164v-3h-3v-2h3v-3h2v3h3v2h-3v3ZM103 164v-3h-3v-2h3v-3h2v3h3v2h-3v3ZM153 164v-3h-3v-2h3v-3h2v3h3v2h-3v3ZM203 164v-3h-3v-2h3v-3h2v3h3v2h-3v3ZM253 164v-3h-3v-2h3v-3h2v3h3v2h-3v3ZM303 164v-3h-3v-2h3v-3h2v3h3v2h-3v3ZM353 164v-3h-3v-2h3v-3h2v3h3v2h-3v3ZM403 164v-3h-3v-2h3v-3h2v3h3v2h-3v3ZM453 164v-3h-3v-2h3v-3h2v3h3v2h-3v3ZM503 164v-3h-3v-2h3v-3h2v3h3v2h-3v3ZM553 164v-3h-3v-2h3v-3h2v3h3v2h-3v3ZM603 164v-3h-3v-2h3v-3h2v3h3v2h-3v3ZM653 164v-3h-3v-2h3v-3h2v3h3v2h-3v3ZM703 164v-3h-3v-2h3v-3h2v3h3v2h-3v3ZM753 164v-3h-3v-2h3v-3h2v3h3v2h-3v3ZM803 164v-3h-3v-2h3v-3h2v3h3v2h-3v3ZM853 164v-3h-3v-2h3v-3h2v3h3v2h-3v3ZM903 164v-3h-3v-2h3v-3h2v3h3v2h-3v3ZM953 164v-3h-3v-2h3v-3h2v3h3v2h-3v3ZM1003 164v-3h-3v-2h3v-3h2v3h3v2h-3v3ZM1053 164v-3h-3v-2h3v-3h2v3h3v2h-3v3ZM1103 164v-3h-3v-2h3v-3h2v3h3v2h-3v3ZM1153 164v-3h-3v-2h3v-3h2v3h3v2h-3v3ZM1203 164v-3h-3v-2h3v-3h2v3h3v2h-3v3ZM1253 164v-3h-3v-2h3v-3h2v3h3v2h-3v3ZM1303 164v-3h-3v-2h3v-3h2v3h3v2h-3v3ZM1353 164v-3h-3v-2h3v-3h2v3h3v2h-3v3ZM1403 164v-3h-3v-2h3v-3h2v3h3v2h-3v3ZM1453 164v-3h-3v-2h3v-3h2v3h3v2h-3v3ZM1503 164v-3h-3v-2h3v-3h2v3h3v2h-3v3ZM1553 164v-3h-3v-2h3v-3h2v3h3v2h-3v3ZM1603 164v-3h-3v-2h3v-3h2v3h3v2h-3v3ZM1653 164v-3h-3v-2h3v-3h2v3h3v2h-3v3ZM1703 164v-3h-3v-2h3v-3h2v3h3v2h-3v3ZM1753 164v-3h-3v-2h3v-3h2v3h3v2h-3v3ZM1803 164v-3h-3v-2h3v-3h2v3h3v2h-3v3ZM1853 164v-3h-3v-2h3v-3h2v3h3v2h-3v3ZM1903 164v-3h-3v-2h3v-3h2v3h3v2h-3v3ZM3 216v-3H0v-2h3v-3h2v3h3v2H5v3ZM53 216v-3h-3v-2h3v-3h2v3h3v2h-3v3ZM103 216v-3h-3v-2h3v-3h2v3h3v2h-3v3ZM153 216v-3h-3v-2h3v-3h2v3h3v2h-3v3ZM203 216v-3h-3v-2h3v-3h2v3h3v2h-3v3ZM253 216v-3h-3v-2h3v-3h2v3h3v2h-3v3ZM303 216v-3h-3v-2h3v-3h2v3h3v2h-3v3ZM353 216v-3h-3v-2h3v-3h2v3h3v2h-3v3ZM403 216v-3h-3v-2h3v-3h2v3h3v2h-3v3ZM453 216v-3h-3v-2h3v-3h2v3h3v2h-3v3ZM503 216v-3h-3v-2h3v-3h2v3h3v2h-3v3ZM553 216v-3h-3v-2h3v-3h2v3h3v2h-3v3ZM603 216v-3h-3v-2h3v-3h2v3h3v2h-3v3ZM653 216v-3h-3v-2h3v-3h2v3h3v2h-3v3ZM703 216v-3h-3v-2h3v-3h2v3h3v2h-3v3ZM753 216v-3h-3v-2h3v-3h2v3h3v2h-3v3ZM803 216v-3h-3v-2h3v-3h2v3h3v2h-3v3ZM853 216v-3h-3v-2h3v-3h2v3h3v2h-3v3ZM903 216v-3h-3v-2h3v-3h2v3h3v2h-3v3ZM953 216v-3h-3v-2h3v-3h2v3h3v2h-3v3ZM1003 216v-3h-3v-2h3v-3h2v3h3v2h-3v3ZM1053 216v-3h-3v-2h3v-3h2v3h3v2h-3v3ZM1103 216v-3h-3v-2h3v-3h2v3h3v2h-3v3ZM1153 216v-3h-3v-2h3v-3h2v3h3v2h-3v3ZM1203 216v-3h-3v-2h3v-3h2v3h3v2h-3v3ZM1253 216v-3h-3v-2h3v-3h2v3h3v2h-3v3ZM1303 216v-3h-3v-2h3v-3h2v3h3v2h-3v3ZM1353 216v-3h-3v-2h3v-3h2v3h3v2h-3v3ZM1403 216v-3h-3v-2h3v-3h2v3h3v2h-3v3ZM1453 216v-3h-3v-2h3v-3h2v3h3v2h-3v3ZM1503 216v-3h-3v-2h3v-3h2v3h3v2h-3v3ZM1553 216v-3h-3v-2h3v-3h2v3h3v2h-3v3ZM1603 216v-3h-3v-2h3v-3h2v3h3v2h-3v3ZM1653 216v-3h-3v-2h3v-3h2v3h3v2h-3v3ZM1703 216v-3h-3v-2h3v-3h2v3h3v2h-3v3ZM1753 216v-3h-3v-2h3v-3h2v3h3v2h-3v3ZM1803 216v-3h-3v-2h3v-3h2v3h3v2h-3v3ZM1853 216v-3h-3v-2h3v-3h2v3h3v2h-3v3ZM1903 216v-3h-3v-2h3v-3h2v3h3v2h-3v3ZM3 268v-3H0v-2h3v-3h2v3h3v2H5v3ZM53 268v-3h-3v-2h3v-3h2v3h3v2h-3v3ZM103 268v-3h-3v-2h3v-3h2v3h3v2h-3v3ZM153 268v-3h-3v-2h3v-3h2v3h3v2h-3v3ZM203 268v-3h-3v-2h3v-3h2v3h3v2h-3v3ZM253 268v-3h-3v-2h3v-3h2v3h3v2h-3v3ZM303 268v-3h-3v-2h3v-3h2v3h3v2h-3v3ZM353 268v-3h-3v-2h3v-3h2v3h3v2h-3v3ZM403 268v-3h-3v-2h3v-3h2v3h3v2h-3v3ZM453 268v-3h-3v-2h3v-3h2v3h3v2h-3v3ZM503 268v-3h-3v-2h3v-3h2v3h3v2h-3v3ZM553 268v-3h-3v-2h3v-3h2v3h3v2h-3v3ZM603 268v-3h-3v-2h3v-3h2v3h3v2h-3v3ZM653 268v-3h-3v-2h3v-3h2v3h3v2h-3v3ZM703 268v-3h-3v-2h3v-3h2v3h3v2h-3v3ZM753 268v-3h-3v-2h3v-3h2v3h3v2h-3v3ZM803 268v-3h-3v-2h3v-3h2v3h3v2h-3v3ZM853 268v-3h-3v-2h3v-3h2v3h3v2h-3v3ZM903 268v-3h-3v-2h3v-3h2v3h3v2h-3v3ZM953 268v-3h-3v-2h3v-3h2v3h3v2h-3v3ZM1003 268v-3h-3v-2h3v-3h2v3h3v2h-3v3ZM1053 268v-3h-3v-2h3v-3h2v3h3v2h-3v3ZM1103 268v-3h-3v-2h3v-3h2v3h3v2h-3v3ZM1153 268v-3h-3v-2h3v-3h2v3h3v2h-3v3ZM1203 268v-3h-3v-2h3v-3h2v3h3v2h-3v3ZM1253 268v-3h-3v-2h3v-3h2v3h3v2h-3v3ZM1303 268v-3h-3v-2h3v-3h2v3h3v2h-3v3ZM1353 268v-3h-3v-2h3v-3h2v3h3v2h-3v3ZM1403 268v-3h-3v-2h3v-3h2v3h3v2h-3v3ZM1453 268v-3h-3v-2h3v-3h2v3h3v2h-3v3ZM1503 268v-3h-3v-2h3v-3h2v3h3v2h-3v3ZM1553 268v-3h-3v-2h3v-3h2v3h3v2h-3v3ZM1603 268v-3h-3v-2h3v-3h2v3h3v2h-3v3ZM1653 268v-3h-3v-2h3v-3h2v3h3v2h-3v3ZM1703 268v-3h-3v-2h3v-3h2v3h3v2h-3v3ZM1753 268v-3h-3v-2h3v-3h2v3h3v2h-3v3ZM1803 268v-3h-3v-2h3v-3h2v3h3v2h-3v3ZM1853 268v-3h-3v-2h3v-3h2v3h3v2h-3v3ZM1903 268v-3h-3v-2h3v-3h2v3h3v2h-3v3ZM3 320v-3H0v-2h3v-3h2v3h3v2H5v3ZM53 320v-3h-3v-2h3v-3h2v3h3v2h-3v3ZM103 320v-3h-3v-2h3v-3h2v3h3v2h-3v3ZM153 320v-3h-3v-2h3v-3h2v3h3v2h-3v3ZM203 320v-3h-3v-2h3v-3h2v3h3v2h-3v3ZM253 320v-3h-3v-2h3v-3h2v3h3v2h-3v3ZM303 320v-3h-3v-2h3v-3h2v3h3v2h-3v3ZM353 320v-3h-3v-2h3v-3h2v3h3v2h-3v3ZM403 320v-3h-3v-2h3v-3h2v3h3v2h-3v3ZM453 320v-3h-3v-2h3v-3h2v3h3v2h-3v3ZM503 320v-3h-3v-2h3v-3h2v3h3v2h-3v3ZM553 320v-3h-3v-2h3v-3h2v3h3v2h-3v3ZM603 320v-3h-3v-2h3v-3h2v3h3v2h-3v3ZM653 320v-3h-3v-2h3v-3h2v3h3v2h-3v3ZM703 320v-3h-3v-2h3v-3h2v3h3v2h-3v3ZM753 320v-3h-3v-2h3v-3h2v3h3v2h-3v3ZM803 320v-3h-3v-2h3v-3h2v3h3v2h-3v3ZM853 320v-3h-3v-2h3v-3h2v3h3v2h-3v3ZM903 320v-3h-3v-2h3v-3h2v3h3v2h-3v3ZM953 320v-3h-3v-2h3v-3h2v3h3v2h-3v3ZM1003 320v-3h-3v-2h3v-3h2v3h3v2h-3v3ZM1053 320v-3h-3v-2h3v-3h2v3h3v2h-3v3ZM1103 320v-3h-3v-2h3v-3h2v3h3v2h-3v3ZM1153 320v-3h-3v-2h3v-3h2v3h3v2h-3v3ZM1203 320v-3h-3v-2h3v-3h2v3h3v2h-3v3ZM1253 320v-3h-3v-2h3v-3h2v3h3v2h-3v3ZM1303 320v-3h-3v-2h3v-3h2v3h3v2h-3v3ZM1353 320v-3h-3v-2h3v-3h2v3h3v2h-3v3ZM1403 320v-3h-3v-2h3v-3h2v3h3v2h-3v3ZM1453 320v-3h-3v-2h3v-3h2v3h3v2h-3v3ZM1503 320v-3h-3v-2h3v-3h2v3h3v2h-3v3ZM1553 320v-3h-3v-2h3v-3h2v3h3v2h-3v3ZM1603 320v-3h-3v-2h3v-3h2v3h3v2h-3v3ZM1653 320v-3h-3v-2h3v-3h2v3h3v2h-3v3ZM1703 320v-3h-3v-2h3v-3h2v3h3v2h-3v3ZM1753 320v-3h-3v-2h3v-3h2v3h3v2h-3v3ZM1803 320v-3h-3v-2h3v-3h2v3h3v2h-3v3ZM1853 320v-3h-3v-2h3v-3h2v3h3v2h-3v3ZM1903 320v-3h-3v-2h3v-3h2v3h3v2h-3v3ZM3 372v-3H0v-2h3v-3h2v3h3v2H5v3ZM53 372v-3h-3v-2h3v-3h2v3h3v2h-3v3ZM103 372v-3h-3v-2h3v-3h2v3h3v2h-3v3ZM153 372v-3h-3v-2h3v-3h2v3h3v2h-3v3ZM203 372v-3h-3v-2h3v-3h2v3h3v2h-3v3ZM253 372v-3h-3v-2h3v-3h2v3h3v2h-3v3ZM303 372v-3h-3v-2h3v-3h2v3h3v2h-3v3ZM353 372v-3h-3v-2h3v-3h2v3h3v2h-3v3ZM403 372v-3h-3v-2h3v-3h2v3h3v2h-3v3ZM453 372v-3h-3v-2h3v-3h2v3h3v2h-3v3ZM503 372v-3h-3v-2h3v-3h2v3h3v2h-3v3ZM553 372v-3h-3v-2h3v-3h2v3h3v2h-3v3ZM603 372v-3h-3v-2h3v-3h2v3h3v2h-3v3ZM653 372v-3h-3v-2h3v-3h2v3h3v2h-3v3ZM703 372v-3h-3v-2h3v-3h2v3h3v2h-3v3ZM753 372v-3h-3v-2h3v-3h2v3h3v2h-3v3ZM803 372v-3h-3v-2h3v-3h2v3h3v2h-3v3ZM853 372v-3h-3v-2h3v-3h2v3h3v2h-3v3ZM903 372v-3h-3v-2h3v-3h2v3h3v2h-3v3ZM953 372v-3h-3v-2h3v-3h2v3h3v2h-3v3ZM1003 372v-3h-3v-2h3v-3h2v3h3v2h-3v3ZM1053 372v-3h-3v-2h3v-3h2v3h3v2h-3v3ZM1103 372v-3h-3v-2h3v-3h2v3h3v2h-3v3ZM1153 372v-3h-3v-2h3v-3h2v3h3v2h-3v3ZM1203 372v-3h-3v-2h3v-3h2v3h3v2h-3v3ZM1253 372v-3h-3v-2h3v-3h2v3h3v2h-3v3ZM1303 372v-3h-3v-2h3v-3h2v3h3v2h-3v3ZM1353 372v-3h-3v-2h3v-3h2v3h3v2h-3v3ZM1403 372v-3h-3v-2h3v-3h2v3h3v2h-3v3ZM1453 372v-3h-3v-2h3v-3h2v3h3v2h-3v3ZM1503 372v-3h-3v-2h3v-3h2v3h3v2h-3v3ZM1553 372v-3h-3v-2h3v-3h2v3h3v2h-3v3ZM1603 372v-3h-3v-2h3v-3h2v3h3v2h-3v3ZM1653 372v-3h-3v-2h3v-3h2v3h3v2h-3v3ZM1703 372v-3h-3v-2h3v-3h2v3h3v2h-3v3ZM1753 372v-3h-3v-2h3v-3h2v3h3v2h-3v3ZM1803 372v-3h-3v-2h3v-3h2v3h3v2h-3v3ZM1853 372v-3h-3v-2h3v-3h2v3h3v2h-3v3ZM1903 372v-3h-3v-2h3v-3h2v3h3v2h-3v3ZM3 424v-3H0v-2h3v-3h2v3h3v2H5v3ZM53 424v-3h-3v-2h3v-3h2v3h3v2h-3v3ZM103 424v-3h-3v-2h3v-3h2v3h3v2h-3v3ZM153 424v-3h-3v-2h3v-3h2v3h3v2h-3v3ZM203 424v-3h-3v-2h3v-3h2v3h3v2h-3v3ZM253 424v-3h-3v-2h3v-3h2v3h3v2h-3v3ZM303 424v-3h-3v-2h3v-3h2v3h3v2h-3v3ZM353 424v-3h-3v-2h3v-3h2v3h3v2h-3v3ZM403 424v-3h-3v-2h3v-3h2v3h3v2h-3v3ZM453 424v-3h-3v-2h3v-3h2v3h3v2h-3v3ZM503 424v-3h-3v-2h3v-3h2v3h3v2h-3v3ZM553 424v-3h-3v-2h3v-3h2v3h3v2h-3v3ZM603 424v-3h-3v-2h3v-3h2v3h3v2h-3v3ZM653 424v-3h-3v-2h3v-3h2v3h3v2h-3v3ZM703 424v-3h-3v-2h3v-3h2v3h3v2h-3v3ZM753 424v-3h-3v-2h3v-3h2v3h3v2h-3v3ZM803 424v-3h-3v-2h3v-3h2v3h3v2h-3v3ZM853 424v-3h-3v-2h3v-3h2v3h3v2h-3v3ZM903 424v-3h-3v-2h3v-3h2v3h3v2h-3v3ZM953 424v-3h-3v-2h3v-3h2v3h3v2h-3v3ZM1003 424v-3h-3v-2h3v-3h2v3h3v2h-3v3ZM1053 424v-3h-3v-2h3v-3h2v3h3v2h-3v3ZM1103 424v-3h-3v-2h3v-3h2v3h3v2h-3v3ZM1153 424v-3h-3v-2h3v-3h2v3h3v2h-3v3ZM1203 424v-3h-3v-2h3v-3h2v3h3v2h-3v3ZM1253 424v-3h-3v-2h3v-3h2v3h3v2h-3v3ZM1303 424v-3h-3v-2h3v-3h2v3h3v2h-3v3ZM1353 424v-3h-3v-2h3v-3h2v3h3v2h-3v3ZM1403 424v-3h-3v-2h3v-3h2v3h3v2h-3v3ZM1453 424v-3h-3v-2h3v-3h2v3h3v2h-3v3ZM1503 424v-3h-3v-2h3v-3h2v3h3v2h-3v3ZM1553 424v-3h-3v-2h3v-3h2v3h3v2h-3v3ZM1603 424v-3h-3v-2h3v-3h2v3h3v2h-3v3ZM1653 424v-3h-3v-2h3v-3h2v3h3v2h-3v3ZM1703 424v-3h-3v-2h3v-3h2v3h3v2h-3v3ZM1753 424v-3h-3v-2h3v-3h2v3h3v2h-3v3ZM1803 424v-3h-3v-2h3v-3h2v3h3v2h-3v3ZM1853 424v-3h-3v-2h3v-3h2v3h3v2h-3v3ZM1903 424v-3h-3v-2h3v-3h2v3h3v2h-3v3ZM3 476v-3H0v-2h3v-3h2v3h3v2H5v3ZM53 476v-3h-3v-2h3v-3h2v3h3v2h-3v3ZM103 476v-3h-3v-2h3v-3h2v3h3v2h-3v3ZM153 476v-3h-3v-2h3v-3h2v3h3v2h-3v3ZM203 476v-3h-3v-2h3v-3h2v3h3v2h-3v3ZM253 476v-3h-3v-2h3v-3h2v3h3v2h-3v3ZM303 476v-3h-3v-2h3v-3h2v3h3v2h-3v3ZM353 476v-3h-3v-2h3v-3h2v3h3v2h-3v3ZM403 476v-3h-3v-2h3v-3h2v3h3v2h-3v3ZM453 476v-3h-3v-2h3v-3h2v3h3v2h-3v3ZM503 476v-3h-3v-2h3v-3h2v3h3v2h-3v3ZM553 476v-3h-3v-2h3v-3h2v3h3v2h-3v3ZM603 476v-3h-3v-2h3v-3h2v3h3v2h-3v3ZM653 476v-3h-3v-2h3v-3h2v3h3v2h-3v3ZM703 476v-3h-3v-2h3v-3h2v3h3v2h-3v3ZM753 476v-3h-3v-2h3v-3h2v3h3v2h-3v3ZM803 476v-3h-3v-2h3v-3h2v3h3v2h-3v3ZM853 476v-3h-3v-2h3v-3h2v3h3v2h-3v3ZM903 476v-3h-3v-2h3v-3h2v3h3v2h-3v3ZM953 476v-3h-3v-2h3v-3h2v3h3v2h-3v3ZM1003 476v-3h-3v-2h3v-3h2v3h3v2h-3v3ZM1053 476v-3h-3v-2h3v-3h2v3h3v2h-3v3ZM1103 476v-3h-3v-2h3v-3h2v3h3v2h-3v3ZM1153 476v-3h-3v-2h3v-3h2v3h3v2h-3v3ZM1203 476v-3h-3v-2h3v-3h2v3h3v2h-3v3ZM1253 476v-3h-3v-2h3v-3h2v3h3v2h-3v3ZM1303 476v-3h-3v-2h3v-3h2v3h3v2h-3v3ZM1353 476v-3h-3v-2h3v-3h2v3h3v2h-3v3ZM1403 476v-3h-3v-2h3v-3h2v3h3v2h-3v3ZM1453 476v-3h-3v-2h3v-3h2v3h3v2h-3v3ZM1503 476v-3h-3v-2h3v-3h2v3h3v2h-3v3ZM1553 476v-3h-3v-2h3v-3h2v3h3v2h-3v3ZM1603 476v-3h-3v-2h3v-3h2v3h3v2h-3v3ZM1653 476v-3h-3v-2h3v-3h2v3h3v2h-3v3ZM1703 476v-3h-3v-2h3v-3h2v3h3v2h-3v3ZM1753 476v-3h-3v-2h3v-3h2v3h3v2h-3v3ZM1803 476v-3h-3v-2h3v-3h2v3h3v2h-3v3ZM1853 476v-3h-3v-2h3v-3h2v3h3v2h-3v3ZM1903 476v-3h-3v-2h3v-3h2v3h3v2h-3v3ZM3 528v-3H0v-2h3v-3h2v3h3v2H5v3ZM53 528v-3h-3v-2h3v-3h2v3h3v2h-3v3ZM103 528v-3h-3v-2h3v-3h2v3h3v2h-3v3ZM153 528v-3h-3v-2h3v-3h2v3h3v2h-3v3ZM203 528v-3h-3v-2h3v-3h2v3h3v2h-3v3ZM253 528v-3h-3v-2h3v-3h2v3h3v2h-3v3ZM303 528v-3h-3v-2h3v-3h2v3h3v2h-3v3ZM353 528v-3h-3v-2h3v-3h2v3h3v2h-3v3ZM403 528v-3h-3v-2h3v-3h2v3h3v2h-3v3ZM453 528v-3h-3v-2h3v-3h2v3h3v2h-3v3ZM503 528v-3h-3v-2h3v-3h2v3h3v2h-3v3ZM553 528v-3h-3v-2h3v-3h2v3h3v2h-3v3ZM603 528v-3h-3v-2h3v-3h2v3h3v2h-3v3ZM653 528v-3h-3v-2h3v-3h2v3h3v2h-3v3ZM703 528v-3h-3v-2h3v-3h2v3h3v2h-3v3ZM753 528v-3h-3v-2h3v-3h2v3h3v2h-3v3ZM803 528v-3h-3v-2h3v-3h2v3h3v2h-3v3ZM853 528v-3h-3v-2h3v-3h2v3h3v2h-3v3ZM903 528v-3h-3v-2h3v-3h2v3h3v2h-3v3ZM953 528v-3h-3v-2h3v-3h2v3h3v2h-3v3ZM1003 528v-3h-3v-2h3v-3h2v3h3v2h-3v3ZM1053 528v-3h-3v-2h3v-3h2v3h3v2h-3v3ZM1103 528v-3h-3v-2h3v-3h2v3h3v2h-3v3ZM1153 528v-3h-3v-2h3v-3h2v3h3v2h-3v3ZM1203 528v-3h-3v-2h3v-3h2v3h3v2h-3v3ZM1253 528v-3h-3v-2h3v-3h2v3h3v2h-3v3ZM1303 528v-3h-3v-2h3v-3h2v3h3v2h-3v3ZM1353 528v-3h-3v-2h3v-3h2v3h3v2h-3v3ZM1403 528v-3h-3v-2h3v-3h2v3h3v2h-3v3ZM1453 528v-3h-3v-2h3v-3h2v3h3v2h-3v3ZM1503 528v-3h-3v-2h3v-3h2v3h3v2h-3v3ZM1553 528v-3h-3v-2h3v-3h2v3h3v2h-3v3ZM1603 528v-3h-3v-2h3v-3h2v3h3v2h-3v3ZM1653 528v-3h-3v-2h3v-3h2v3h3v2h-3v3ZM1703 528v-3h-3v-2h3v-3h2v3h3v2h-3v3ZM1753 528v-3h-3v-2h3v-3h2v3h3v2h-3v3ZM1803 528v-3h-3v-2h3v-3h2v3h3v2h-3v3ZM1853 528v-3h-3v-2h3v-3h2v3h3v2h-3v3ZM1903 528v-3h-3v-2h3v-3h2v3h3v2h-3v3ZM3 580v-3H0v-2h3v-3h2v3h3v2H5v3ZM53 580v-3h-3v-2h3v-3h2v3h3v2h-3v3ZM103 580v-3h-3v-2h3v-3h2v3h3v2h-3v3ZM153 580v-3h-3v-2h3v-3h2v3h3v2h-3v3ZM203 580v-3h-3v-2h3v-3h2v3h3v2h-3v3ZM253 580v-3h-3v-2h3v-3h2v3h3v2h-3v3ZM303 580v-3h-3v-2h3v-3h2v3h3v2h-3v3ZM353 580v-3h-3v-2h3v-3h2v3h3v2h-3v3ZM403 580v-3h-3v-2h3v-3h2v3h3v2h-3v3ZM453 580v-3h-3v-2h3v-3h2v3h3v2h-3v3ZM503 580v-3h-3v-2h3v-3h2v3h3v2h-3v3ZM553 580v-3h-3v-2h3v-3h2v3h3v2h-3v3ZM603 580v-3h-3v-2h3v-3h2v3h3v2h-3v3ZM653 580v-3h-3v-2h3v-3h2v3h3v2h-3v3ZM703 580v-3h-3v-2h3v-3h2v3h3v2h-3v3ZM753 580v-3h-3v-2h3v-3h2v3h3v2h-3v3ZM803 580v-3h-3v-2h3v-3h2v3h3v2h-3v3ZM853 580v-3h-3v-2h3v-3h2v3h3v2h-3v3ZM903 580v-3h-3v-2h3v-3h2v3h3v2h-3v3ZM953 580v-3h-3v-2h3v-3h2v3h3v2h-3v3ZM1003 580v-3h-3v-2h3v-3h2v3h3v2h-3v3ZM1053 580v-3h-3v-2h3v-3h2v3h3v2h-3v3ZM1103 580v-3h-3v-2h3v-3h2v3h3v2h-3v3ZM1153 580v-3h-3v-2h3v-3h2v3h3v2h-3v3ZM1203 580v-3h-3v-2h3v-3h2v3h3v2h-3v3ZM1253 580v-3h-3v-2h3v-3h2v3h3v2h-3v3ZM1303 580v-3h-3v-2h3v-3h2v3h3v2h-3v3ZM1353 580v-3h-3v-2h3v-3h2v3h3v2h-3v3ZM1403 580v-3h-3v-2h3v-3h2v3h3v2h-3v3ZM1453 580v-3h-3v-2h3v-3h2v3h3v2h-3v3ZM1503 580v-3h-3v-2h3v-3h2v3h3v2h-3v3ZM1553 580v-3h-3v-2h3v-3h2v3h3v2h-3v3ZM1603 580v-3h-3v-2h3v-3h2v3h3v2h-3v3ZM1653 580v-3h-3v-2h3v-3h2v3h3v2h-3v3ZM1703 580v-3h-3v-2h3v-3h2v3h3v2h-3v3ZM1753 580v-3h-3v-2h3v-3h2v3h3v2h-3v3ZM1803 580v-3h-3v-2h3v-3h2v3h3v2h-3v3ZM1853 580v-3h-3v-2h3v-3h2v3h3v2h-3v3ZM1903 580v-3h-3v-2h3v-3h2v3h3v2h-3v3ZM3 632v-3H0v-2h3v-3h2v3h3v2H5v3ZM53 632v-3h-3v-2h3v-3h2v3h3v2h-3v3ZM103 632v-3h-3v-2h3v-3h2v3h3v2h-3v3ZM153 632v-3h-3v-2h3v-3h2v3h3v2h-3v3ZM203 632v-3h-3v-2h3v-3h2v3h3v2h-3v3ZM253 632v-3h-3v-2h3v-3h2v3h3v2h-3v3ZM303 632v-3h-3v-2h3v-3h2v3h3v2h-3v3ZM353 632v-3h-3v-2h3v-3h2v3h3v2h-3v3ZM403 632v-3h-3v-2h3v-3h2v3h3v2h-3v3ZM453 632v-3h-3v-2h3v-3h2v3h3v2h-3v3ZM503 632v-3h-3v-2h3v-3h2v3h3v2h-3v3ZM553 632v-3h-3v-2h3v-3h2v3h3v2h-3v3ZM603 632v-3h-3v-2h3v-3h2v3h3v2h-3v3ZM653 632v-3h-3v-2h3v-3h2v3h3v2h-3v3ZM703 632v-3h-3v-2h3v-3h2v3h3v2h-3v3ZM753 632v-3h-3v-2h3v-3h2v3h3v2h-3v3ZM803 632v-3h-3v-2h3v-3h2v3h3v2h-3v3ZM853 632v-3h-3v-2h3v-3h2v3h3v2h-3v3ZM903 632v-3h-3v-2h3v-3h2v3h3v2h-3v3ZM953 632v-3h-3v-2h3v-3h2v3h3v2h-3v3ZM1003 632v-3h-3v-2h3v-3h2v3h3v2h-3v3ZM1053 632v-3h-3v-2h3v-3h2v3h3v2h-3v3ZM1103 632v-3h-3v-2h3v-3h2v3h3v2h-3v3ZM1153 632v-3h-3v-2h3v-3h2v3h3v2h-3v3ZM1203 632v-3h-3v-2h3v-3h2v3h3v2h-3v3ZM1253 632v-3h-3v-2h3v-3h2v3h3v2h-3v3ZM1303 632v-3h-3v-2h3v-3h2v3h3v2h-3v3ZM1353 632v-3h-3v-2h3v-3h2v3h3v2h-3v3ZM1403 632v-3h-3v-2h3v-3h2v3h3v2h-3v3ZM1453 632v-3h-3v-2h3v-3h2v3h3v2h-3v3ZM1503 632v-3h-3v-2h3v-3h2v3h3v2h-3v3ZM1553 632v-3h-3v-2h3v-3h2v3h3v2h-3v3ZM1603 632v-3h-3v-2h3v-3h2v3h3v2h-3v3ZM1653 632v-3h-3v-2h3v-3h2v3h3v2h-3v3ZM1703 632v-3h-3v-2h3v-3h2v3h3v2h-3v3ZM1753 632v-3h-3v-2h3v-3h2v3h3v2h-3v3ZM1803 632v-3h-3v-2h3v-3h2v3h3v2h-3v3ZM1853 632v-3h-3v-2h3v-3h2v3h3v2h-3v3ZM1903 632v-3h-3v-2h3v-3h2v3h3v2h-3v3ZM3 684v-3H0v-2h3v-3h2v3h3v2H5v3ZM53 684v-3h-3v-2h3v-3h2v3h3v2h-3v3ZM103 684v-3h-3v-2h3v-3h2v3h3v2h-3v3ZM153 684v-3h-3v-2h3v-3h2v3h3v2h-3v3ZM203 684v-3h-3v-2h3v-3h2v3h3v2h-3v3ZM253 684v-3h-3v-2h3v-3h2v3h3v2h-3v3ZM303 684v-3h-3v-2h3v-3h2v3h3v2h-3v3ZM353 684v-3h-3v-2h3v-3h2v3h3v2h-3v3ZM403 684v-3h-3v-2h3v-3h2v3h3v2h-3v3ZM453 684v-3h-3v-2h3v-3h2v3h3v2h-3v3ZM503 684v-3h-3v-2h3v-3h2v3h3v2h-3v3ZM553 684v-3h-3v-2h3v-3h2v3h3v2h-3v3ZM603 684v-3h-3v-2h3v-3h2v3h3v2h-3v3ZM653 684v-3h-3v-2h3v-3h2v3h3v2h-3v3ZM703 684v-3h-3v-2h3v-3h2v3h3v2h-3v3ZM753 684v-3h-3v-2h3v-3h2v3h3v2h-3v3ZM803 684v-3h-3v-2h3v-3h2v3h3v2h-3v3ZM853 684v-3h-3v-2h3v-3h2v3h3v2h-3v3ZM903 684v-3h-3v-2h3v-3h2v3h3v2h-3v3ZM953 684v-3h-3v-2h3v-3h2v3h3v2h-3v3ZM1003 684v-3h-3v-2h3v-3h2v3h3v2h-3v3ZM1053 684v-3h-3v-2h3v-3h2v3h3v2h-3v3ZM1103 684v-3h-3v-2h3v-3h2v3h3v2h-3v3ZM1153 684v-3h-3v-2h3v-3h2v3h3v2h-3v3ZM1203 684v-3h-3v-2h3v-3h2v3h3v2h-3v3ZM1253 684v-3h-3v-2h3v-3h2v3h3v2h-3v3ZM1303 684v-3h-3v-2h3v-3h2v3h3v2h-3v3ZM1353 684v-3h-3v-2h3v-3h2v3h3v2h-3v3ZM1403 684v-3h-3v-2h3v-3h2v3h3v2h-3v3ZM1453 684v-3h-3v-2h3v-3h2v3h3v2h-3v3ZM1503 684v-3h-3v-2h3v-3h2v3h3v2h-3v3ZM1553 684v-3h-3v-2h3v-3h2v3h3v2h-3v3ZM1603 684v-3h-3v-2h3v-3h2v3h3v2h-3v3ZM1653 684v-3h-3v-2h3v-3h2v3h3v2h-3v3ZM1703 684v-3h-3v-2h3v-3h2v3h3v2h-3v3ZM1753 684v-3h-3v-2h3v-3h2v3h3v2h-3v3ZM1803 684v-3h-3v-2h3v-3h2v3h3v2h-3v3ZM1853 684v-3h-3v-2h3v-3h2v3h3v2h-3v3ZM1903 684v-3h-3v-2h3v-3h2v3h3v2h-3v3ZM3 736v-3H0v-2h3v-3h2v3h3v2H5v3ZM53 736v-3h-3v-2h3v-3h2v3h3v2h-3v3ZM103 736v-3h-3v-2h3v-3h2v3h3v2h-3v3ZM153 736v-3h-3v-2h3v-3h2v3h3v2h-3v3ZM203 736v-3h-3v-2h3v-3h2v3h3v2h-3v3ZM253 736v-3h-3v-2h3v-3h2v3h3v2h-3v3ZM303 736v-3h-3v-2h3v-3h2v3h3v2h-3v3ZM353 736v-3h-3v-2h3v-3h2v3h3v2h-3v3ZM403 736v-3h-3v-2h3v-3h2v3h3v2h-3v3ZM453 736v-3h-3v-2h3v-3h2v3h3v2h-3v3ZM503 736v-3h-3v-2h3v-3h2v3h3v2h-3v3ZM553 736v-3h-3v-2h3v-3h2v3h3v2h-3v3ZM603 736v-3h-3v-2h3v-3h2v3h3v2h-3v3ZM653 736v-3h-3v-2h3v-3h2v3h3v2h-3v3ZM703 736v-3h-3v-2h3v-3h2v3h3v2h-3v3ZM753 736v-3h-3v-2h3v-3h2v3h3v2h-3v3ZM803 736v-3h-3v-2h3v-3h2v3h3v2h-3v3ZM853 736v-3h-3v-2h3v-3h2v3h3v2h-3v3ZM903 736v-3h-3v-2h3v-3h2v3h3v2h-3v3ZM953 736v-3h-3v-2h3v-3h2v3h3v2h-3v3ZM1003 736v-3h-3v-2h3v-3h2v3h3v2h-3v3ZM1053 736v-3h-3v-2h3v-3h2v3h3v2h-3v3ZM1103 736v-3h-3v-2h3v-3h2v3h3v2h-3v3ZM1153 736v-3h-3v-2h3v-3h2v3h3v2h-3v3ZM1203 736v-3h-3v-2h3v-3h2v3h3v2h-3v3ZM1253 736v-3h-3v-2h3v-3h2v3h3v2h-3v3ZM1303 736v-3h-3v-2h3v-3h2v3h3v2h-3v3ZM1353 736v-3h-3v-2h3v-3h2v3h3v2h-3v3ZM1403 736v-3h-3v-2h3v-3h2v3h3v2h-3v3ZM1453 736v-3h-3v-2h3v-3h2v3h3v2h-3v3ZM1503 736v-3h-3v-2h3v-3h2v3h3v2h-3v3ZM1553 736v-3h-3v-2h3v-3h2v3h3v2h-3v3ZM1603 736v-3h-3v-2h3v-3h2v3h3v2h-3v3ZM1653 736v-3h-3v-2h3v-3h2v3h3v2h-3v3ZM1703 736v-3h-3v-2h3v-3h2v3h3v2h-3v3ZM1753 736v-3h-3v-2h3v-3h2v3h3v2h-3v3ZM1803 736v-3h-3v-2h3v-3h2v3h3v2h-3v3ZM1853 736v-3h-3v-2h3v-3h2v3h3v2h-3v3ZM1903 736v-3h-3v-2h3v-3h2v3h3v2h-3v3Z" />
      </g>
    </g>
  </g>
</svg>